REM MD5 696c8c02c641bee96337ba09c1994c0a
FILE "Euro Demo 40 (Europe, Australia).bin" BINARY
  TRACK 01 MODE2/2352
    INDEX 01 00:00:00
  TRACK 02 AUDIO
    INDEX 00 46:23:52
    INDEX 01 46:25:52
  TRACK 03 AUDIO
    INDEX 00 48:05:11
    INDEX 01 48:07:11
  TRACK 04 AUDIO
    INDEX 00 53:30:00
    INDEX 01 53:32:00
  TRACK 05 AUDIO
    INDEX 00 57:01:40
    INDEX 01 57:03:40
REM LEADOUT 60:04:72
